<svg width="48" height="48" fill="none" xmlns="http://www.w3.org/2000/svg"><path d="M36.728 11.272c.478.479.918.981 1.331 1.497l3.619-3.618a1 1 0 0 0 0-1.414l-1.415-1.414a1 1 0 0 0-1.414 0L35.231 9.94c.516.413 1.018.853 1.497 1.331ZM11.272 36.728c-.478-.479-.918-.98-1.331-1.497l-3.618 3.618a1 1 0 0 0 0 1.414l1.414 1.415a1 1 0 0 0 1.414 0l3.618-3.619a18.071 18.071 0 0 1-1.497-1.331ZM9.94 12.77a18.08 18.08 0 0 1 1.332-1.498c.479-.479.98-.918 1.497-1.331L9.151 6.322a1 1 0 0 0-1.414 0L6.322 7.737a1 1 0 0 0 0 1.414l3.619 3.618ZM41.678 40.264a1 1 0 0 0 0-1.415l-3.618-3.618a18.09 18.09 0 0 1-1.332 1.497c-.479.479-.98.919-1.497 1.331l3.618 3.619a1 1 0 0 0 1.415 0l1.414-1.414ZM22 1v5.122c1.33-.148 2.67-.148 4 0V1.001A1 1 0 0 0 25 0h-2c-.552 0-1 .448-1 1ZM26 47v-5.122a18.05 18.05 0 0 1-4 0v5.121A1 1 0 0 0 23 48h2c.552 0 1-.447 1-1ZM6.122 26a18.009 18.009 0 0 1 0-4H1c-.552 0-1 .448-1 1v2a1 1 0 0 0 1 1h5.122ZM41.878 22a18.05 18.05 0 0 1 0 4H47c.553 0 1-.448 1-1v-2a1 1 0 0 0-1-1h-5.122ZM16.93 16.929a9.937 9.937 0 0 0-2.817 5.644l8.46-8.46a9.94 9.94 0 0 0-5.644 2.816ZM25.405 14.11 14.11 25.405c.108.764.298 1.518.583 2.245L27.65 14.693a9.983 9.983 0 0 0-2.245-.583ZM29.515 15.657 15.657 29.515c.363.55.788 1.072 1.272 1.556l14.142-14.142a10.06 10.06 0 0 0-1.556-1.272Z" fill="#000"/><path fill-rule="evenodd" clip-rule="evenodd" d="M12.686 12.686c6.248-6.248 16.38-6.248 22.628 0 6.248 6.248 6.248 16.38 0 22.628-6.248 6.248-16.38 6.248-22.628 0-6.248-6.248-6.248-16.38 0-22.628Zm2.829 2.829c-4.686 4.686-4.686 12.284 0 16.97 4.686 4.686 12.284 4.686 16.97 0 4.686-4.686 4.686-12.284 0-16.97-4.686-4.686-12.284-4.686-16.97 0Z" fill="#000"/></svg>