<svg width="48" height="48" fill="none" xmlns="http://www.w3.org/2000/svg"><path fill-rule="evenodd" clip-rule="evenodd" d="M4 17C4 9.82 9.82 4 17 4s13 5.82 13 13-5.82 13-13 13S4 24.18 4 17Zm30 0c0-9.389-7.611-17-17-17S0 7.611 0 17s7.611 17 17 17 17-7.611 17-17Z" fill="#000"/><path d="M27.904 18.386a13.001 13.001 0 0 0-9.517 9.517c-.455.058-.916.097-1.387.097a10.97 10.97 0 0 1-2.668-.34A17.015 17.015 0 0 1 27.66 14.332c.213.855.339 1.746.339 2.668 0 .47-.04.931-.096 1.386ZM36 17c0-.777-.06-1.537-.15-2.289C42.872 16.8 48 23.297 48 31.001c0 9.387-7.61 17-17 17-7.703 0-14.2-5.128-16.289-12.152.752.09 1.512.151 2.29.151.661 0 1.316-.036 1.961-.102C20.898 40.648 25.555 44 31 44c7.18 0 13-5.82 13-13 0-5.446-3.35-10.102-8.1-12.038A19.26 19.26 0 0 0 36 17Z" fill="#000"/></svg>