<svg width="48" height="48" fill="none" xmlns="http://www.w3.org/2000/svg"><path fill-rule="evenodd" clip-rule="evenodd" d="M24 44c11.046 0 20-8.954 20-20S35.046 4 24 4 4 12.954 4 24s8.954 20 20 20Zm0-44c13.255 0 24 10.745 24 24S37.255 48 24 48 0 37.255 0 24 10.745 0 24 0Z" fill="#000"/><path fill-rule="evenodd" clip-rule="evenodd" d="m11.29 11.313 1.413 1.415-5.794 5.794a17.835 17.835 0 0 0-.783 3.612l7.992-7.992 2.828 2.828L6.364 27.552c.15.752.362 1.49.607 2.222l11.39-11.39 2.828 2.829L8.787 33.615c.358.568.743 1.123 1.17 1.657l12.646-12.645 2.828 2.829L12.786 38.1c.534.428 1.09.812 1.658 1.17L26.846 26.87l2.828 2.828-11.39 11.39c.732.244 1.47.457 2.222.606l10.582-10.582 2.829 2.829-7.992 7.992a17.84 17.84 0 0 0 3.611-.783l5.795-5.795 1.414 1.414c7.03-7.03 7.03-18.426 0-25.456-7.03-7.029-18.426-7.029-25.456 0Z" fill="#000"/></svg>