<svg width="48" height="48" fill="none" xmlns="http://www.w3.org/2000/svg"><path fill-rule="evenodd" clip-rule="evenodd" d="M44 17c0 7.18-5.82 13-13 13s-13-5.82-13-13S23.82 4 31 4s13 5.82 13 13ZM18.574 5.425c-.32.344-.629.698-.92 1.066-.096.123-.187.25-.28.376a16.515 16.515 0 0 0-2.275 4.165c-.076.2-.154.4-.222.604-.121.363-.221.734-.318 1.108-.054.208-.115.413-.161.624a17.01 17.01 0 0 0-.208 1.225c-.027.189-.066.374-.087.565A17.241 17.241 0 0 0 14 17c0 9.389 7.611 17 17 17 .623 0 1.236-.038 1.841-.104.192-.02.377-.059.566-.086.412-.059.823-.121 1.225-.208.211-.046.416-.107.623-.161.374-.096.746-.197 1.11-.319.203-.067.402-.145.602-.22.359-.135.715-.278 1.063-.437a16.96 16.96 0 0 0 3.106-1.84c.124-.093.25-.183.371-.278.371-.292.726-.602 1.071-.924.078-.072.159-.14.235-.213a16.923 16.923 0 0 0 5.104-13.855c-.019-.191-.052-.378-.077-.567a16.496 16.496 0 0 0-.157-1.027c-.044-.23-.102-.454-.155-.68a17.505 17.505 0 0 0-.219-.854 17.718 17.718 0 0 0-.237-.729 16.95 16.95 0 0 0-.59-1.493 17.375 17.375 0 0 0-.303-.63 17.314 17.314 0 0 0-.411-.775c-.102-.179-.211-.351-.319-.525-.166-.267-.332-.535-.512-.793-.093-.134-.196-.262-.293-.392-.21-.283-.418-.565-.644-.833l-.001-.002a17.176 17.176 0 0 0-2.054-2.054L41.943 4c-.27-.227-.554-.437-.838-.648-.129-.095-.254-.196-.386-.288-.259-.182-.529-.349-.799-.516-.171-.106-.341-.214-.517-.314a18.208 18.208 0 0 0-2.169-1.038c-.24-.095-.483-.183-.728-.267a17.557 17.557 0 0 0-.736-.238 16.169 16.169 0 0 0-.847-.218c-.228-.054-.454-.112-.685-.156-.337-.065-.68-.112-1.024-.157-.19-.024-.377-.058-.569-.077a16.923 16.923 0 0 0-13.853 5.103c-.075.077-.145.16-.218.239Z" fill="#000"/><path fill-rule="evenodd" clip-rule="evenodd" d="M44 30.83V43a1 1 0 0 1-1 1H5a1 1 0 0 1-1-1V5a1 1 0 0 1 1-1h12.17a19.019 19.019 0 0 1 5.382-4H3a3 3 0 0 0-3 3v42a3 3 0 0 0 3 3h42a3 3 0 0 0 3-3V25.448a19.019 19.019 0 0 1-4 5.382Z" fill="#000"/></svg>