<svg width="48" height="48" fill="none" xmlns="http://www.w3.org/2000/svg"><path fill-rule="evenodd" clip-rule="evenodd" d="M40 17.14c4.782 2.767 8 7.938 8 13.86 0 8.836-7.164 16-16 16-2.914 0-5.647-.78-8-2.14A15.925 15.925 0 0 1 16 47C7.164 47 0 39.836 0 31c0-5.922 3.218-11.093 8-13.86V17C8 8.164 15.164 1 24 1s16 7.164 16 16v.14Zm-4.28 2.448A11.99 11.99 0 0 0 32 19c-1.592 0-3.112.31-4.503.873a15.986 15.986 0 0 1 3.857 6.61 12.003 12.003 0 0 0 4.366-6.895ZM32 30.86a16.04 16.04 0 0 0 7.353-9.343A11.98 11.98 0 0 1 44 31c0 6.627-5.373 12-12 12-1.592 0-3.112-.31-4.503-.873A15.947 15.947 0 0 0 32 30.86Zm-4.28-2.448A11.99 11.99 0 0 0 24 22.056a11.99 11.99 0 0 0-3.72 6.356A11.99 11.99 0 0 0 24 29a11.99 11.99 0 0 0 3.72-.588Zm-7.625 4.108c1.25.313 2.558.48 3.905.48s2.655-.166 3.905-.48A11.976 11.976 0 0 1 24 39.944a11.976 11.976 0 0 1-3.905-7.424Zm-3.448-6.037a15.986 15.986 0 0 1 3.856-6.61A11.966 11.966 0 0 0 16 19a11.99 11.99 0 0 0-3.72.588 12.003 12.003 0 0 0 4.367 6.895Zm-8-4.966A16.04 16.04 0 0 0 16 30.86L16 31c0 4.324 1.715 8.247 4.503 11.127-1.39.563-2.91.873-4.503.873-6.627 0-12-5.373-12-12a11.98 11.98 0 0 1 4.646-9.483Zm3.448-6.037C12.842 9.57 17.888 5 24 5c6.112 0 11.157 4.57 11.905 10.48A16.034 16.034 0 0 0 32 15c-2.914 0-5.647.78-8 2.14A15.925 15.925 0 0 0 16 15c-1.347 0-2.655.166-3.905.48Z" fill="#000"/></svg>