<svg width="48" height="48" fill="none" xmlns="http://www.w3.org/2000/svg"><path d="M11 18h3v3a1 1 0 0 0 1 1h2a1 1 0 0 0 1-1v-3h3a1 1 0 0 0 1-1v-2a1 1 0 0 0-1-1h-3v-3a1 1 0 0 0-1-1h-2a1 1 0 0 0-1 1v3h-3a1 1 0 0 0-1 1v2a1 1 0 0 0 1 1Z" fill="#000"/><path fill-rule="evenodd" clip-rule="evenodd" d="M42 6v36H6L42 6ZM25 30a1 1 0 0 0-1 1v2a1 1 0 0 0 1 1h10a1 1 0 0 0 1-1v-2a1 1 0 0 0-1-1H25Z" fill="#000"/><path fill-rule="evenodd" clip-rule="evenodd" d="M45 0H3a3 3 0 0 0-3 3v42a3 3 0 0 0 3 3h42a3 3 0 0 0 3-3V3a3 3 0 0 0-3-3Zm-1 43a1 1 0 0 1-1 1H5a.98.98 0 0 1-.783-.406A.975.975 0 0 1 4 43V5a1 1 0 0 1 1-1h38c.227 0 .426.089.594.217A.98.98 0 0 1 44 5v38Z" fill="#000"/></svg>