<svg width="48" height="48" fill="none" xmlns="http://www.w3.org/2000/svg"><path d="M11 18h3v3a1 1 0 0 0 1 1h2a1 1 0 0 0 1-1v-3h3a1 1 0 0 0 1-1v-2a1 1 0 0 0-1-1h-3v-3a1 1 0 0 0-1-1h-2a1 1 0 0 0-1 1v3h-3a1 1 0 0 0-1 1v2a1 1 0 0 0 1 1ZM42 6.645V6l-.322.323.322.322ZM36.02 11.98 42 17.959v-2.83l-4.565-4.564-1.415 1.415ZM33.192 14.808 42 23.616v-2.83l-7.394-7.392-1.414 1.414ZM42 29.272 30.364 17.636l1.414-1.415L42 26.444v2.828ZM42 12.302 38.85 9.15l1.414-1.415L42 9.473v2.829ZM27.536 20.464 42 34.928V32.1L28.95 19.05l-1.414 1.414ZM20.787 42l-7.393-7.394 1.414-1.414L23.616 42h-2.83ZM6 42h.645l-.323-.322L6 42ZM9.472 42l-1.736-1.736 1.415-1.415 3.151 3.15h-2.83ZM10.565 37.435 15.13 42h2.828l-5.98-5.979-1.413 1.414ZM42 40.586 24.707 23.293l1.414-1.414L42 37.757v2.829ZM21.879 26.121l15.878 15.88h2.828L23.293 24.706l-1.414 1.414ZM32.1 42 19.05 28.95l1.414-1.414L34.928 42H32.1ZM16.222 31.778 26.444 42h2.828L17.636 30.364l-1.414 1.414Z" fill="#000"/><path fill-rule="evenodd" clip-rule="evenodd" d="M45 0H3a3 3 0 0 0-3 3v42a3 3 0 0 0 3 3h42c.462 0 .895-.114 1.286-.3a3.004 3.004 0 0 0 1.414-1.414c.187-.392.3-.825.3-1.287V3a3 3 0 0 0-3-3Zm-1 43a1 1 0 0 1-1 1H5a1 1 0 0 1-1-1V5a1 1 0 0 1 1-1h38a1 1 0 0 1 1 1v38Z" fill="#000"/></svg>