<svg width="48" height="48" fill="none" xmlns="http://www.w3.org/2000/svg"><path d="M34.606 13.393 27.213 6h-2.829l8.808 8.808 1.414-1.414ZM6 13.071l14.464 14.464-1.414 1.414L6 15.9v-2.828ZM17.636 30.363 6 18.727v2.828l10.221 10.223 1.415-1.415ZM6 24.384l8.808 8.808-1.414 1.414L6 27.213v-2.83ZM6 30.041l5.98 5.979-1.415 1.415L6 32.87v-2.829ZM6 42v-.645l.322.322L6 42ZM9.15 38.849 6 35.698v2.829l1.736 1.737 1.415-1.415ZM41.355 6H42l-.322.321L41.355 6ZM40.264 7.736 38.528 6h-2.83l3.15 3.15 1.416-1.414ZM32.87 6l4.565 4.564-1.414 1.414L30.042 6h2.828ZM23.293 24.706 6 7.413v2.83L21.879 26.12l1.414-1.414ZM10.243 6l15.878 15.878-1.414 1.414L7.414 6h2.83ZM28.95 19.05 15.9 6h-2.828l14.464 14.464 1.414-1.414ZM21.556 6 31.778 16.22l-1.414 1.414L18.728 6h2.828ZM37 30a1 1 0 0 1 1 1v2a1 1 0 0 1-1 1H27a1 1 0 0 1-1-1v-2a1 1 0 0 1 1-1h10Z" fill="#000"/><path fill-rule="evenodd" clip-rule="evenodd" d="M3 48h42a3 3 0 0 0 3-3V3a3 3 0 0 0-3-3H3c-.462 0-.895.113-1.286.299A3.004 3.004 0 0 0 .3 1.713C.113 2.105 0 2.538 0 3v42a3 3 0 0 0 3 3ZM4 5a1 1 0 0 1 1-1h38a1 1 0 0 1 1 1v38a1 1 0 0 1-1 1H5a1 1 0 0 1-1-1V5Z" fill="#000"/></svg>